<?xml version="1.0" encoding="utf-8"?>
<!-- Generator: Adobe Illustrator 19.0.0, SVG Export Plug-In . SVG Version: 6.00 Build 0)  -->
<svg version="1.1" id="Layer_1" xmlns="http://www.w3.org/2000/svg" xmlns:xlink="http://www.w3.org/1999/xlink" x="0px" y="0px"
	 viewBox="0 0 134.6 119.5" style="enable-background:new 0 0 134.6 119.5;" xml:space="preserve">
<style type="text/css">
	.st0{fill-rule:evenodd;clip-rule:evenodd;fill:#0DB14B;}
	.st1{fill-rule:evenodd;clip-rule:evenodd;fill:#008739;}
	.st2{fill-rule:evenodd;clip-rule:evenodd;fill:#FFFFFF;}
</style>
<polygon class="st0" points="67.3,0 100.9,58.3 134.6,116.5 67.3,116.5 0,116.5 33.6,58.3 "/>
<path class="st1" d="M55.1,101.4c0,0-0.7,9.3,6.6,14.8l3.4,0.1l4.8,0.2c-0.9-4.9-4.2-7.2-7-8.5C59.6,106.4,56.7,104.6,55.1,101.4"/>
<path class="st1" d="M83.7,99.8c0,0,2.2,10.5-6.2,16.7h-6.6c0.3-4.9,3.3-7.6,5.8-9.2C79.8,105.3,82.6,103.2,83.7,99.8"/>
<path class="st1" d="M55.4,91c0.2,17.7,9.7,13.2,14.1,20.2C70.1,97.3,59.1,99.3,55.4,91"/>
<path class="st1" d="M83.5,89.8c1,17.7-8.7,13.9-12.7,21.2C69.2,97.2,80.3,98.3,83.5,89.8"/>
<path class="st1" d="M56.8,79.9c-1.8,17.7,8.1,14,11.7,21.4C70.7,87.5,59.5,88.4,56.8,79.9"/>
<path class="st1" d="M81.8,79.7c2,17.6-7.9,14.3-11.5,21.7C68,87.8,79.2,88.3,81.8,79.7"/>
<path class="st1" d="M59.2,69.5c-3.5,16,5.9,13.5,8.5,20.5C71.1,77.6,60.9,77.5,59.2,69.5"/>
<path class="st1" d="M80.3,70.7c1.8,16.1-7.2,13-10.5,19.8C67.6,78,77.8,78.5,80.3,70.7"/>
<path class="st1" d="M62.7,59.4c-5.3,14.9,3.9,13.4,5.4,20.3C73,68.3,63.3,67.2,62.7,59.4"/>
<path class="st1" d="M79.6,62.1c1.6,13.8-6.2,11.2-9,17C68.8,68.5,77.5,68.9,79.6,62.1"/>
<path class="st1" d="M66.4,50.3c-6.3,13.2,2.3,12.5,3,18.9C74.9,59.2,66.2,57.4,66.4,50.3"/>
<path class="st1" d="M78.5,53.6c2.9,11.6-3.8,10.1-6.9,15.5C70.7,58.8,77.8,60.6,78.5,53.6"/>
<path class="st1" d="M74.9,41c0,0-10.7,9.3-2.9,18.6C81.7,54.5,72,48.1,74.9,41"/>
<path class="st2" d="M51.6,101.6c0,0-0.8,15.5,15.5,17.8c0-7-4.2-9.9-7.5-11.4C56.3,106.5,53.3,104.8,51.6,101.6"/>
<path class="st2" d="M80.2,99.4c0,0,3.5,15.1-12.2,20.2c-1.2-6.9,2.4-10.5,5.4-12.5C76.4,105,79.1,102.8,80.2,99.4"/>
<path class="st2" d="M51.7,91.2c0.6,17.7,10,13,14.6,19.9C66.6,97.2,55.6,99.4,51.7,91.2"/>
<path class="st2" d="M79.8,89.4c1.4,17.7-8.4,14.1-12.2,21.5C65.7,97.1,76.8,97.9,79.8,89.4"/>
<path class="st2" d="M52.8,80.1c-1.4,17.7,8.4,13.9,12.2,21.1C66.9,87.3,55.8,88.5,52.8,80.1"/>
<path class="st2" d="M77.9,79.3c2.4,17.6-7.6,14.5-11,22C64.2,87.7,75.4,88,77.9,79.3"/>
<path class="st2" d="M55,69.6C51.9,85.7,61.3,83,64,89.9C67.1,77.5,56.9,77.6,55,69.6"/>
<path class="st2" d="M76.1,70.3c2.2,16-6.9,13.2-10,20.1C63.6,77.9,73.8,78.2,76.1,70.3"/>
<path class="st2" d="M58.3,59.5c-5,15,4.2,13.3,5.9,20.2C68.8,68.1,59,67.2,58.3,59.5"/>
<path class="st2" d="M75.3,61.8c1.9,13.8-6,11.3-8.6,17.2C64.6,68.4,73.3,68.6,75.3,61.8"/>
<path class="st2" d="M61.8,50.3c-6,13.3,2.6,12.5,3.4,18.9C70.5,58.9,61.7,57.4,61.8,50.3"/>
<path class="st2" d="M74,53.3c3.2,11.5-3.6,10.2-6.6,15.6C66.2,58.7,73.4,60.3,74,53.3"/>
<path class="st2" d="M71.3,40.8c0,0-11.1,9.5-3.7,18.7C77.5,54.1,68,48,71.3,40.8"/>
</svg>
