<?xml version="1.0" encoding="utf-8"?>
<!-- Generator: Adobe Illustrator 19.0.0, SVG Export Plug-In . SVG Version: 6.00 Build 0)  -->
<svg version="1.1" id="Layer_1" xmlns="http://www.w3.org/2000/svg" xmlns:xlink="http://www.w3.org/1999/xlink" x="0px" y="0px"
	 viewBox="0 0 110.6 101.2" style="enable-background:new 0 0 110.6 101.2;" xml:space="preserve">
<style type="text/css">
	.st0{fill-rule:evenodd;clip-rule:evenodd;fill:#E4333A;}
	.st1{fill:#BC292E;}
	.st2{fill:#FFFFFF;}
	
		.st3{fill:none;stroke:#BC292E;stroke-width:1.9998;stroke-linecap:round;stroke-linejoin:round;stroke-miterlimit:2.6131;stroke-dasharray:4,10;}
</style>
<g>
	<polygon class="st0" points="55.3,0 82.9,47.9 110.6,95.8 55.3,95.8 0,95.8 27.6,47.9 	"/>
	<path class="st1" d="M40.3,95.8C43.1,71.5,57.9,50,79.1,41.3l3.8,6.6l1,1.7c-14,10.7-20.6,28.3-21.1,46.2h-5.2H40.3z"/>
	<path class="st2" d="M34.7,101.2c2.2-28.5,21-54.5,47-62.2l4.6,6.7C66.6,56.7,57.7,79.2,57.8,101L34.7,101.2z"/>
	<path class="st3" d="M46.6,97.1c1-14.8,10.7-41.8,34.1-52.9"/>
</g>
</svg>
